HIERARCHY
ROOT Hips
{
	OFFSET 0.000000 83.214638 0.000000
	CHANNELS 6 Xposition Yposition Zposition Xrotation Yrotation Zrotation
	JOINT Pelvis
	{
		OFFSET 0.000000 0.000000 0.000000
		CHANNELS 3 Xrotation Yrotation Zrotation
		JOINT LeftUpLeg
		{
			OFFSET 8.479700 -4.795502 -0.379100
			CHANNELS 3 Xrotation Yrotation Zrotation
			JOINT LeftLeg
			{
				OFFSET 0.024144 -32.555107 0.112900
				CHANNELS 3 Xrotation Yrotation Zrotation
				JOINT LeftFoot
				{
					OFFSET -0.024144 -32.638630 -3.012600
					CHANNELS 3 Xrotation Yrotation Zrotation
					JOINT LeftToeBase
					{
						OFFSET 0.970200 -13.225400 11.864200
						CHANNELS 3 Xrotation Yrotation Zrotation
						End Site
						{
							OFFSET 0.000000 12.319262 0.000000
						}
					}
					JOINT LFootTongue
					{
						OFFSET 1.142400 -1.059800 6.665200
						CHANNELS 3 Xrotation Yrotation Zrotation
						End Site
						{
							OFFSET 0.000000 12.319262 0.000000
						}
					}
				}
				JOINT LeftPantLeg
				{
					OFFSET 0.918482 -16.533964 -2.284700
					CHANNELS 3 Xrotation Yrotation Zrotation
					End Site
					{
						OFFSET 0.350399 24.744368 0.000000
					}
				}
			}
		}
		JOINT RightUpLeg
		{
			OFFSET -8.479700 -4.795502 -0.379100
			CHANNELS 3 Xrotation Yrotation Zrotation
			JOINT RightLeg
			{
				OFFSET -0.023144 -32.555092 0.112900
				CHANNELS 3 Xrotation Yrotation Zrotation
				JOINT RightFoot
				{
					OFFSET 0.023144 -32.638641 -3.012700
					CHANNELS 3 Xrotation Yrotation Zrotation
					JOINT RightToeBase
					{
						OFFSET -0.970200 -13.225400 11.864200
						CHANNELS 3 Xrotation Yrotation Zrotation
						End Site
						{
							OFFSET 0.000000 12.319244 0.000000
						}
					}
					JOINT RFootTongue
					{
						OFFSET -1.142200 -1.059800 6.665200
						CHANNELS 3 Xrotation Yrotation Zrotation
						End Site
						{
							OFFSET 0.000000 12.319243 0.000000
						}
					}
				}
				JOINT RightPantLeg
				{
					OFFSET -0.919482 -16.533978 -2.284800
					CHANNELS 3 Xrotation Yrotation Zrotation
					End Site
					{
						OFFSET -0.350400 24.744419 0.000000
					}
				}
			}
		}
	}
	JOINT Spine
	{
		OFFSET 0.000000 7.722000 1.166200
		CHANNELS 3 Xrotation Yrotation Zrotation
		JOINT Spine1
		{
			OFFSET 0.000000 12.024101 0.248800
			CHANNELS 3 Xrotation Yrotation Zrotation
			JOINT Spine2
			{
				OFFSET 0.000000 11.502998 -0.491200
				CHANNELS 3 Xrotation Yrotation Zrotation
				JOINT Neck
				{
					OFFSET 0.000000 18.430702 -3.123100
					CHANNELS 3 Xrotation Yrotation Zrotation
					JOINT Head
					{
						OFFSET 0.000000 9.051102 1.034000
						CHANNELS 3 Xrotation Yrotation Zrotation
						JOINT HairB
						{
							OFFSET 0.208400 24.786102 24.822300
							CHANNELS 3 Xrotation Yrotation Zrotation
							End Site
							{
								OFFSET 0.000000 32.263779 0.000000
							}
						}
						JOINT HairA
						{
							OFFSET -7.081100 24.428299 23.196600
							CHANNELS 3 Xrotation Yrotation Zrotation
							End Site
							{
								OFFSET 0.000000 32.263779 0.000000
							}
						}
						JOINT Hat
						{
							OFFSET 16.728800 15.048294 -15.439601
							CHANNELS 3 Xrotation Yrotation Zrotation
							End Site
							{
								OFFSET 0.000000 32.263779 0.000000
							}
						}
					}
				}
				JOINT LeftShoulder
				{
					OFFSET 6.197800 13.665199 -4.064700
					CHANNELS 3 Xrotation Yrotation Zrotation
					JOINT LeftArm
					{
						OFFSET 7.778100 -0.187103 -1.709300
						CHANNELS 3 Xrotation Yrotation Zrotation
						JOINT LeftForeArm
						{
							OFFSET 22.049376 0.000000 0.000000
							CHANNELS 3 Xrotation Yrotation Zrotation
							JOINT LeftHand
							{
								OFFSET 23.009392 0.000000 0.000000
								CHANNELS 3 Xrotation Yrotation Zrotation
								JOINT LeftHandThumb1
								{
									OFFSET 3.507191 -2.063065 3.133727
									CHANNELS 3 Xrotation Yrotation Zrotation
									JOINT LeftHandThumb2
									{
										OFFSET 3.101337 -1.790558 1.790558
										CHANNELS 3 Xrotation Yrotation Zrotation
										JOINT LeftHandThumb3
										{
											OFFSET 3.058640 -1.765907 1.765906
											CHANNELS 3 Xrotation Yrotation Zrotation
											End Site
											{
												OFFSET -0.415260 3.926476 -0.049563
											}
										}
									}
								}
								JOINT LeftHandIndex1
								{
									OFFSET 11.334419 -0.901459 3.706815
									CHANNELS 3 Xrotation Yrotation Zrotation
									JOINT LeftHandIndex2
									{
										OFFSET 3.283112 0.000000 0.000000
										CHANNELS 3 Xrotation Yrotation Zrotation
										JOINT LeftHandIndex3
										{
											OFFSET 3.323853 0.000000 0.000000
											CHANNELS 3 Xrotation Yrotation Zrotation
											End Site
											{
												OFFSET -1.135597 3.097809 0.402452
											}
										}
									}
								}
								JOINT LeftHandMiddle1
								{
									OFFSET 11.335861 0.000000 0.000000
									CHANNELS 3 Xrotation Yrotation Zrotation
									JOINT LeftHandMiddle2
									{
										OFFSET 3.410492 0.000000 0.000000
										CHANNELS 3 Xrotation Yrotation Zrotation
										JOINT LeftHandMiddle3
										{
											OFFSET 3.312172 0.000000 0.000000
											CHANNELS 3 Xrotation Yrotation Zrotation
											End Site
											{
												OFFSET -1.150200 3.080154 0.400270
											}
										}
									}
								}
								JOINT LeftHandRing1
								{
									OFFSET 11.514786 -0.013176 -3.003090
									CHANNELS 3 Xrotation Yrotation Zrotation
									JOINT LeftHandRing2
									{
										OFFSET 3.053307 0.000000 0.000000
										CHANNELS 3 Xrotation Yrotation Zrotation
										JOINT LeftHandRing3
										{
											OFFSET 3.295807 0.000000 0.000000
											CHANNELS 3 Xrotation Yrotation Zrotation
											End Site
											{
												OFFSET -1.281006 3.013344 0.375733
											}
										}
									}
								}
								JOINT LeftHandPinky1
								{
									OFFSET 10.518692 -0.960396 -5.730441
									CHANNELS 3 Xrotation Yrotation Zrotation
									JOINT LeftHandPinky2
									{
										OFFSET 2.861649 0.000000 0.000000
										CHANNELS 3 Xrotation Yrotation Zrotation
										JOINT LeftHandPinky3
										{
											OFFSET 2.863380 0.000000 0.000000
											CHANNELS 3 Xrotation Yrotation Zrotation
											End Site
											{
												OFFSET -0.843597 2.711159 0.369971
											}
										}
									}
								}
							}
							JOINT LSleeve
							{
								OFFSET 6.676277 -0.344902 -1.011730
								CHANNELS 3 Xrotation Yrotation Zrotation
								End Site
								{
									OFFSET 0.000000 14.885353 0.000000
								}
							}
						}
					}
				}
				JOINT RightShoulder
				{
					OFFSET -6.197800 13.665199 -4.064700
					CHANNELS 3 Xrotation Yrotation Zrotation
					JOINT RightArm
					{
						OFFSET -7.778100 -0.187103 -1.709300
						CHANNELS 3 Xrotation Yrotation Zrotation
						JOINT RightForeArm
						{
							OFFSET -22.049376 0.000000 0.000000
							CHANNELS 3 Xrotation Yrotation Zrotation
							JOINT RightHand
							{
								OFFSET -23.009392 0.000000 0.000000
								CHANNELS 3 Xrotation Yrotation Zrotation
								JOINT RightHandThumb1
								{
									OFFSET -3.507191 -2.063065 3.133727
									CHANNELS 3 Xrotation Yrotation Zrotation
									JOINT RightHandThumb2
									{
										OFFSET -3.101337 -1.790558 1.790558
										CHANNELS 3 Xrotation Yrotation Zrotation
										JOINT RightHandThumb3
										{
											OFFSET -3.058640 -1.765907 1.765906
											CHANNELS 3 Xrotation Yrotation Zrotation
											End Site
											{
												OFFSET 0.415260 3.926476 -0.049563
											}
										}
									}
								}
								JOINT RightHandIndex1
								{
									OFFSET -11.334419 -0.901459 3.706815
									CHANNELS 3 Xrotation Yrotation Zrotation
									JOINT RightHandIndex2
									{
										OFFSET -3.283112 0.000000 0.000000
										CHANNELS 3 Xrotation Yrotation Zrotation
										JOINT RightHandIndex3
										{
											OFFSET -3.323853 0.000000 0.000000
											CHANNELS 3 Xrotation Yrotation Zrotation
											End Site
											{
												OFFSET 1.135597 3.097809 0.402452
											}
										}
									}
								}
								JOINT RightHandMiddle1
								{
									OFFSET -11.335861 0.000000 0.000000
									CHANNELS 3 Xrotation Yrotation Zrotation
									JOINT RightHandMiddle2
									{
										OFFSET -3.410492 0.000000 0.000000
										CHANNELS 3 Xrotation Yrotation Zrotation
										JOINT RightHandMiddle3
										{
											OFFSET -3.312172 0.000000 0.000000
											CHANNELS 3 Xrotation Yrotation Zrotation
											End Site
											{
												OFFSET 1.150200 3.080154 0.400270
											}
										}
									}
								}
								JOINT RightHandRing1
								{
									OFFSET -11.514786 -0.013176 -3.003090
									CHANNELS 3 Xrotation Yrotation Zrotation
									JOINT RightHandRing2
									{
										OFFSET -3.053307 0.000000 0.000000
										CHANNELS 3 Xrotation Yrotation Zrotation
										JOINT RightHandRing3
										{
											OFFSET -3.295807 0.000000 0.000000
											CHANNELS 3 Xrotation Yrotation Zrotation
											End Site
											{
												OFFSET 1.281006 3.013344 0.375733
											}
										}
									}
								}
								JOINT RightHandPinky1
								{
									OFFSET -10.518692 -0.960396 -5.730441
									CHANNELS 3 Xrotation Yrotation Zrotation
									JOINT RightHandPinky2
									{
										OFFSET -2.861649 0.000000 0.000000
										CHANNELS 3 Xrotation Yrotation Zrotation
										JOINT RightHandPinky3
										{
											OFFSET -2.863380 0.000000 0.000000
											CHANNELS 3 Xrotation Yrotation Zrotation
											End Site
											{
												OFFSET 0.843597 2.711159 0.369971
											}
										}
									}
								}
							}
							JOINT RSleeve
							{
								OFFSET -6.676277 -0.344902 -1.011730
								CHANNELS 3 Xrotation Yrotation Zrotation
								End Site
								{
									OFFSET 0.000000 14.885353 0.000000
								}
							}
						}
					}
				}
				JOINT Backpack
				{
					OFFSET 0.000000 -2.471497 36.677502
					CHANNELS 3 Xrotation Yrotation Zrotation
					End Site
					{
						OFFSET 0.000000 20.427315 0.000000
					}
				}
				JOINT Hood
				{
					OFFSET 0.000000 18.754097 -10.431000
					CHANNELS 3 Xrotation Yrotation Zrotation
					JOINT Hood1
					{
						OFFSET 0.000000 -5.011002 -7.685901
						CHANNELS 3 Xrotation Yrotation Zrotation
						End Site
						{
							OFFSET 0.000000 9.175140 0.000000
						}
					}
				}
				JOINT LHoodieString
				{
					OFFSET 5.250500 16.397697 3.089900
					CHANNELS 3 Xrotation Yrotation Zrotation
					JOINT LHoodieString1
					{
						OFFSET 0.257700 -6.364304 3.694600
						CHANNELS 3 Xrotation Yrotation Zrotation
						JOINT LHoodieString2
						{
							OFFSET 0.000000 -9.643799 2.679100
							CHANNELS 3 Xrotation Yrotation Zrotation
							End Site
							{
								OFFSET 0.000000 10.009018 0.000000
							}
						}
					}
				}
				JOINT RHoodieString
				{
					OFFSET -5.250500 16.397697 3.089900
					CHANNELS 3 Xrotation Yrotation Zrotation
					JOINT RHoodieString1
					{
						OFFSET -0.257700 -6.364304 3.694600
						CHANNELS 3 Xrotation Yrotation Zrotation
						JOINT RHoodieString2
						{
							OFFSET 0.000000 -9.643799 2.679100
							CHANNELS 3 Xrotation Yrotation Zrotation
							End Site
							{
								OFFSET 0.000000 10.009018 0.000000
							}
						}
					}
				}
			}
			JOINT LBackpack_Strap
			{
				OFFSET 15.223200 -7.719803 -6.610900
				CHANNELS 3 Xrotation Yrotation Zrotation
				End Site
				{
					OFFSET 0.000000 16.040596 0.000000
				}
			}
			JOINT RBackpack_Strap
			{
				OFFSET -15.223000 -7.719803 -6.610900
				CHANNELS 3 Xrotation Yrotation Zrotation
				End Site
				{
					OFFSET 0.000000 16.040596 0.000000
				}
			}
		}
	}
	JOINT BoyFacialAnim_Joint
	{
		OFFSET 1.000000 -82.208099 -1.550900
		CHANNELS 3 Xrotation Yrotation Zrotation
		End Site
		{
			OFFSET 0.000000 30.012791 0.000000
		}
	}
}
MOTION
Frames: 5
Frame Time: 0.033333
-0.235449 77.831764 -0.268996 -3.850114 -17.008556 -1.830377 0.000000 -0.000001 0.000000 -25.192195 15.369515 13.687192 39.946314 1.480701 3.305943 -12.127919 1.271354 -7.640843 0.000000 0.000000 -0.000000 0.000000 0.000000 -0.000000 0.000000 0.000000 0.000000 -21.225028 -21.813637 -11.708853 37.830526 -9.643727 -8.710650 -13.619912 -2.720163 13.242812 0.000000 0.000002 0.000000 0.000000 0.000002 0.000000 0.000000 -0.000002 0.000000 7.631079 3.261829 0.694533 5.145056 2.424440 0.725736 5.170203 2.401325 0.647271 -11.488817 2.337245 0.970493 -11.583489 13.089407 -1.847532 -0.000001 0.000000 0.000000 -0.000001 0.000000 0.000000 -0.000001 0.000000 0.000000 2.819888 -7.084532 -6.675103 -34.068277 -74.095272 -54.787550 -0.000008 -25.577566 -0.000005 -112.178972 -24.384976 16.192234 -1.540059 3.690192 6.142343 5.241553 24.644735 1.914190 -0.000002 -0.000003 -0.000001 0.400010 2.316891 -19.588388 0.791742 3.210660 -27.698902 -0.000005 0.000002 -0.000003 0.399365 2.315085 -19.572394 0.792645 3.212364 -27.714942 0.000004 -0.000000 0.000000 0.400018 2.316874 -19.588383 0.791737 3.210655 -27.698896 0.000000 0.000002 -0.000000 1.748977 6.141573 -19.177518 0.801102 -0.850379 -28.152694 -0.000002 0.000000 -0.000000 -0.000001 -0.000003 -0.000000 2.412941 5.066896 -2.443217 -63.724545 83.989935 79.172650 -0.000002 24.773955 -0.000001 -82.703831 -0.162909 -22.858504 60.676552 30.171623 -26.129392 7.010561 -36.783154 -1.810802 0.000002 0.000002 0.000001 1.119482 -3.788546 32.913285 3.460373 -6.013119 59.807930 -0.000001 0.000000 0.000002 1.119479 -3.788545 32.913298 3.460371 -6.013108 59.807916 -0.000004 -0.000001 0.000001 1.119489 -3.788526 32.913285 3.460353 -6.013121 59.807944 0.000002 0.000001 0.000001 1.119491 -3.788530 32.913271 3.460372 -6.013113 59.807937 -0.000001 -0.000001 0.000000 -0.000000 -0.000001 -0.000002 -0.000000 0.000000 -0.000000 -0.000000 0.000000 -0.000000 -0.000000 0.000000 -0.000000 -0.000000 0.000000 -0.000000 -0.000000 0.000000 -0.000000 -0.000000 0.000000 0.000000 -0.000000 0.000000 -0.000000 -0.000000 0.000000 -0.000000 -0.000000 0.000000 0.000000 0.000001 -0.000001 0.000000 0.000001 -0.000001 0.000000 0.000000 -0.000001 0.000000 
-0.252281 77.836548 -0.287272 -3.862322 -16.976147 -1.796370 0.000000 -0.000001 -0.000000 -25.213952 15.521444 13.647026 39.893622 1.275723 3.398845 -12.077968 1.269171 -7.604987 -0.000000 -0.000000 -0.000000 -0.000000 -0.000000 -0.000000 -0.000001 -0.000000 -0.000000 -21.258885 -21.838353 -11.737472 37.843169 -9.652652 -8.721645 -13.597155 -2.793373 13.220609 -0.000000 -0.000002 -0.000000 -0.000000 -0.000002 -0.000000 0.000001 -0.000001 0.000000 7.621313 3.243195 0.700142 5.131832 2.407955 0.722370 5.157608 2.383136 0.644730 -11.509758 2.368241 0.889008 -11.579320 13.107943 -1.848907 0.000000 0.000000 0.000000 0.000000 0.000000 0.000000 0.000000 0.000000 0.000000 2.774407 -7.040135 -7.108404 -33.614711 -73.831162 -54.458061 0.000001 -25.856576 0.000001 -111.599520 -24.392511 16.392814 -1.540053 3.690193 6.142350 5.241548 24.644736 1.914193 0.000001 -0.000000 -0.000002 0.400015 2.316890 -19.588387 0.791735 3.210654 -27.698902 -0.000002 -0.000003 0.000001 0.399368 2.315088 -19.572390 0.792644 3.212364 -27.714941 0.000004 0.000003 0.000001 0.400024 2.316878 -19.588381 0.791735 3.210650 -27.698898 0.000002 -0.000002 -0.000001 1.748979 6.141578 -19.177513 0.801099 -0.850380 -28.152691 -0.000002 -0.000001 0.000003 -0.000002 -0.000001 0.000004 2.436412 5.140750 -2.695045 -64.120341 83.965954 79.657300 -0.000001 24.757139 -0.000006 -82.800416 -0.007259 -22.857752 60.676552 30.171623 -26.129391 7.010563 -36.783154 -1.810802 0.000001 0.000002 0.000001 1.119481 -3.788546 32.913285 3.460373 -6.013115 59.807923 0.000002 -0.000000 0.000003 1.119478 -3.788542 32.913302 3.460373 -6.013111 59.807923 0.000003 0.000000 0.000003 1.119489 -3.788528 32.913285 3.460353 -6.013121 59.807944 -0.000000 0.000002 0.000001 1.119492 -3.788533 32.913278 3.460372 -6.013114 59.807937 0.000001 -0.000000 0.000000 -0.000002 0.000000 -0.000002 -0.000001 0.000001 0.000000 -0.000001 0.000001 0.000000 -0.000001 0.000001 0.000000 -0.000001 0.000001 0.000000 -0.000001 0.000001 -0.000000 -0.000001 0.000001 -0.000000 -0.000001 0.000001 0.000000 -0.000001 0.000001 -0.000000 -0.000001 0.000001 -0.000000 0.000001 0.000000 0.000000 0.000001 0.000000 0.000000 0.000000 -0.000001 -0.000000 
-0.273499 77.838913 -0.307778 -3.884004 -16.916545 -1.788503 -0.000000 0.000001 -0.000000 -25.245793 15.643467 13.640472 39.861626 1.067079 3.488285 -12.031727 1.266158 -7.578251 0.000000 -0.000000 -0.000000 0.000000 -0.000000 0.000000 0.000001 -0.000000 -0.000000 -21.277117 -21.912055 -11.736859 37.844893 -9.663108 -8.758943 -13.567458 -2.881358 13.203143 0.000000 -0.000003 0.000000 0.000000 -0.000003 0.000000 -0.000001 -0.000000 -0.000001 7.611273 3.235814 0.684292 5.119023 2.401067 0.718288 5.144685 2.381242 0.639269 -11.528309 2.360667 0.905100 -11.583962 13.095839 -1.861111 -0.000001 -0.000000 -0.000000 -0.000001 -0.000000 -0.000000 -0.000001 -0.000000 -0.000000 2.789400 -6.978082 -7.537788 -33.655655 -73.677278 -54.531592 0.000007 -25.979495 0.000008 -110.931315 -24.372231 16.580409 -1.540057 3.690192 6.142347 5.241551 24.644738 1.914191 0.000001 0.000000 -0.000001 0.400011 2.316893 -19.588388 0.791745 3.210656 -27.698896 0.000002 0.000000 0.000002 0.399359 2.315084 -19.572394 0.792643 3.212370 -27.714939 0.000000 -0.000001 0.000002 0.400021 2.316876 -19.588387 0.791734 3.210651 -27.698896 0.000000 -0.000001 -0.000001 1.748977 6.141577 -19.177518 0.801104 -0.850382 -28.152693 -0.000001 0.000001 -0.000000 0.000002 0.000004 0.000001 2.434340 5.156961 -2.697374 -63.585298 83.971910 79.206576 -0.000001 24.836858 -0.000004 -82.788689 0.121780 -22.873784 60.676552 30.171623 -26.129389 7.010559 -36.783150 -1.810802 0.000003 0.000000 0.000002 1.119481 -3.788546 32.913285 3.460373 -6.013119 59.807930 0.000001 -0.000000 0.000002 1.119478 -3.788544 32.913298 3.460373 -6.013109 59.807923 0.000002 0.000000 -0.000000 1.119489 -3.788525 32.913281 3.460354 -6.013121 59.807944 -0.000000 -0.000000 0.000004 1.119491 -3.788534 32.913271 3.460375 -6.013110 59.807930 0.000001 -0.000001 0.000000 -0.000001 0.000003 -0.000000 0.000000 -0.000001 -0.000000 0.000000 -0.000001 -0.000000 0.000000 -0.000001 -0.000000 0.000000 -0.000001 -0.000000 0.000000 -0.000001 -0.000000 0.000000 -0.000001 -0.000000 0.000000 -0.000001 -0.000000 0.000000 -0.000001 -0.000000 0.000000 -0.000001 -0.000000 0.000001 -0.000000 -0.000000 0.000001 -0.000000 -0.000000 -0.000000 0.000001 -0.000000 
-0.298610 77.841103 -0.334780 -3.926169 -16.827716 -1.798880 0.000000 -0.000001 -0.000000 -25.252307 15.682432 13.648023 39.832536 0.917269 3.536978 -11.976972 1.262749 -7.562774 0.000000 0.000000 -0.000000 0.000000 0.000000 0.000000 -0.000001 0.000000 0.000000 -21.266899 -22.035495 -11.723603 37.833879 -9.671615 -8.816533 -13.543084 -2.948636 13.189821 -0.000000 -0.000002 0.000000 -0.000000 -0.000002 0.000000 -0.000001 -0.000000 0.000000 7.612228 3.238402 0.654301 5.119968 2.399775 0.713568 5.145176 2.385263 0.633866 -11.549810 2.337392 0.953096 -11.585208 13.062919 -1.867170 -0.000001 -0.000000 0.000000 -0.000001 -0.000000 0.000000 -0.000001 -0.000000 0.000000 2.839660 -6.878873 -7.968369 -33.812698 -73.775523 -54.604982 -0.000000 -25.966569 -0.000003 -110.370202 -24.329446 16.747528 -1.540054 3.690192 6.142346 5.241550 24.644736 1.914191 -0.000001 -0.000000 0.000002 0.400015 2.316889 -19.588392 0.791741 3.210660 -27.698900 -0.000004 -0.000001 -0.000000 0.399364 2.315088 -19.572387 0.792649 3.212366 -27.714939 0.000000 0.000000 -0.000001 0.400020 2.316877 -19.588381 0.791734 3.210650 -27.698896 -0.000001 -0.000001 0.000001 1.748978 6.141577 -19.177520 0.801101 -0.850383 -28.152689 -0.000004 0.000001 0.000002 -0.000002 -0.000002 -0.000002 2.419234 5.127022 -2.563697 -62.628641 83.813183 78.327038 -0.000002 25.022449 -0.000003 -82.574433 0.180987 -22.918968 60.676559 30.171616 -26.129396 7.010553 -36.783150 -1.810802 0.000002 -0.000000 -0.000001 1.119481 -3.788547 32.913285 3.460373 -6.013116 59.807930 0.000003 -0.000002 0.000002 1.119478 -3.788547 32.913302 3.460371 -6.013107 59.807923 0.000001 0.000001 0.000002 1.119490 -3.788526 32.913288 3.460355 -6.013120 59.807937 -0.000001 0.000003 -0.000001 1.119492 -3.788532 32.913275 3.460374 -6.013113 59.807937 0.000004 -0.000001 0.000002 0.000001 -0.000002 -0.000003 0.000000 0.000000 -0.000000 0.000000 0.000000 -0.000000 0.000000 0.000000 -0.000000 0.000000 0.000000 -0.000000 0.000000 0.000000 -0.000000 0.000001 0.000000 -0.000000 0.000000 0.000000 -0.000000 0.000000 0.000000 -0.000000 0.000001 0.000000 -0.000000 -0.000000 -0.000000 -0.000000 -0.000000 -0.000000 -0.000000 0.000000 -0.000001 -0.000000 
-0.330231 77.846634 -0.371073 -3.962358 -16.737990 -1.762097 0.000000 0.000001 -0.000000 -25.201619 15.622968 13.614946 39.750195 0.879934 3.500409 -11.885846 1.258357 -7.560237 0.000000 -0.000000 -0.000000 0.000000 -0.000000 -0.000000 0.000000 0.000000 -0.000000 -21.285409 -22.150517 -11.757086 37.840266 -9.674008 -8.876926 -13.541676 -2.982045 13.174518 0.000000 -0.000000 -0.000000 0.000000 -0.000000 -0.000000 0.000001 0.000002 0.000000 7.626226 3.234581 0.607391 5.124046 2.400065 0.703318 5.148837 2.385914 0.623166 -11.570364 2.365111 0.897836 -11.645023 13.105169 -1.831343 -0.000001 0.000000 -0.000000 -0.000001 0.000000 -0.000000 -0.000001 0.000000 -0.000000 2.885379 -6.706360 -8.408740 -33.441904 -74.240325 -54.059424 0.000003 -25.879484 0.000002 -110.194563 -24.283035 16.827687 -1.540050 3.690189 6.142345 5.241549 24.644736 1.914194 -0.000003 -0.000003 -0.000002 0.400013 2.316891 -19.588387 0.791741 3.210661 -27.698900 0.000001 -0.000002 0.000001 0.399365 2.315085 -19.572389 0.792645 3.212367 -27.714942 0.000005 0.000002 0.000001 0.400023 2.316874 -19.588383 0.791733 3.210649 -27.698898 -0.000002 -0.000003 -0.000001 1.748977 6.141575 -19.177517 0.801099 -0.850381 -28.152693 -0.000001 0.000002 0.000000 -0.000001 0.000000 0.000001 2.422168 5.146820 -2.565488 -61.943894 83.318186 77.723325 -0.000004 25.282732 0.000003 -82.184893 0.190660 -23.029561 60.676552 30.171623 -26.129387 7.010559 -36.783154 -1.810803 -0.000001 -0.000000 0.000001 1.119481 -3.788551 32.913285 3.460372 -6.013118 59.807930 -0.000002 0.000001 0.000000 1.119476 -3.788551 32.913302 3.460371 -6.013112 59.807923 0.000001 0.000000 -0.000000 1.119489 -3.788530 32.913285 3.460352 -6.013120 59.807937 0.000001 -0.000001 0.000004 1.119491 -3.788538 32.913271 3.460373 -6.013116 59.807937 0.000002 -0.000001 0.000000 -0.000001 -0.000001 -0.000001 -0.000000 -0.000001 0.000000 -0.000000 -0.000001 0.000000 -0.000000 -0.000001 0.000000 -0.000000 -0.000001 0.000000 -0.000000 -0.000001 -0.000000 -0.000000 -0.000000 0.000000 -0.000000 -0.000001 0.000000 -0.000000 -0.000001 -0.000000 -0.000000 -0.000000 0.000000 0.000001 -0.000001 -0.000000 0.000001 -0.000001 -0.000000 0.000000 0.000001 -0.000000 
